<?xml version="1.0" encoding="utf-8"?>
<!-- Generator: Adobe Illustrator 25.3.1, SVG Export Plug-In . SVG Version: 6.00 Build 0)  -->
<svg version="1.1" id="_xB7__xB9_ÀÌ_xBE_î_1" xmlns="http://www.w3.org/2000/svg" xmlns:xlink="http://www.w3.org/1999/xlink"
	 x="0px" y="0px" viewBox="0 0 398.6 136.3" style="enable-background:new 0 0 398.6 136.3;" xml:space="preserve">
<style type="text/css">
	.st0{fill-rule:evenodd;clip-rule:evenodd;fill:#FFFFFF;}
	.st1{fill:#FFFFFF;}
</style>
<g>
	<path class="st0" d="M141.6,133.4v-14.9h1.7v6.1h6.5v-6.1h1.7v14.9h-1.7v-7h-6.5v7H141.6L141.6,133.4z M153.2,133.4l4.8-14.9h1.8
		l5.1,14.9H163l-1.5-4.5h-5.2l-1.4,4.5H153.2L153.2,133.4z M156.8,127.3h4.2l-1.3-4.1c-0.4-1.2-0.7-2.3-0.9-3.1
		c-0.2,1-0.4,1.9-0.7,2.8L156.8,127.3L156.8,127.3z M166.7,133.4v-14.9h1.7l6.6,11.7v-11.7h1.6v14.9h-1.7l-6.6-11.7v11.7H166.7
		L166.7,133.4z M180.1,133.4v-14.9h1.7v14.9H180.1L180.1,133.4z M185.1,133.4v-14.9h1.7v13.1h6.1v1.8H185.1L185.1,133.4z
		 M198.1,133.4v-14.9h4.7c0.8,0,1.5,0,1.9,0.1c0.6,0.1,1.1,0.4,1.5,0.7c0.4,0.3,0.7,0.8,1,1.4c0.3,0.6,0.4,1.3,0.4,2
		c0,1.3-0.3,2.3-1,3.2c-0.7,0.9-1.9,1.3-3.7,1.3h-3.2v6H198.1L198.1,133.4z M199.7,125.6h3.2c1.1,0,1.8-0.2,2.3-0.7
		c0.4-0.5,0.7-1.1,0.7-2c0-0.6-0.1-1.2-0.4-1.6c-0.3-0.4-0.6-0.7-1-0.9c-0.3-0.1-0.8-0.1-1.5-0.1h-3.2V125.6L199.7,125.6z
		 M209.7,126.1c0-2.5,0.6-4.4,1.7-5.8c1.1-1.4,2.5-2.1,4.3-2.1c1.2,0,2.2,0.3,3.1,1c0.9,0.7,1.6,1.6,2.1,2.7c0.5,1.2,0.7,2.5,0.7,4
		c0,1.5-0.3,2.9-0.8,4c-0.5,1.2-1.2,2.1-2.2,2.7c-0.9,0.6-1.9,0.9-3,0.9c-1.2,0-2.2-0.3-3.2-1c-0.9-0.7-1.6-1.6-2.1-2.8
		C209.9,128.7,209.7,127.5,209.7,126.1L209.7,126.1z M211.4,126.2c0,1.8,0.4,3.2,1.2,4.2c0.8,1,1.8,1.5,3,1.5c1.2,0,2.3-0.5,3.1-1.6
		c0.8-1,1.2-2.5,1.2-4.4c0-1.2-0.2-2.3-0.5-3.2c-0.3-0.9-0.8-1.6-1.5-2.1c-0.7-0.5-1.4-0.7-2.2-0.7c-1.2,0-2.2,0.5-3,1.4
		C211.8,122.3,211.4,123.9,211.4,126.2L211.4,126.2z M226.4,133.4l-3.3-14.9h1.7l1.9,9.7c0.2,1,0.4,2,0.5,3c0.3-1.6,0.5-2.5,0.6-2.7
		l2.4-10h2l1.8,7.5c0.4,1.9,0.8,3.6,1,5.3c0.2-0.9,0.4-2,0.6-3.2l2-9.6h1.7l-3.4,14.9h-1.6l-2.6-11.3c-0.2-0.9-0.4-1.5-0.4-1.7
		c-0.1,0.7-0.3,1.3-0.4,1.7l-2.6,11.3H226.4L226.4,133.4z M241.2,133.4v-14.9h9v1.8h-7.4v4.6h6.9v1.7h-6.9v5.1h7.7v1.8H241.2
		L241.2,133.4z M253.3,133.4v-14.9h5.5c1.1,0,2,0.1,2.5,0.4c0.6,0.3,1,0.7,1.4,1.4c0.3,0.7,0.5,1.4,0.5,2.2c0,1.1-0.3,1.9-0.9,2.7
		c-0.6,0.7-1.5,1.2-2.7,1.4c0.4,0.2,0.8,0.5,1,0.7c0.5,0.5,0.9,1.2,1.4,2l2.2,4h-2.1l-1.7-3.1c-0.5-0.9-0.9-1.6-1.2-2
		c-0.3-0.5-0.6-0.8-0.8-1c-0.2-0.2-0.5-0.3-0.8-0.4c-0.2,0-0.5-0.1-0.9-0.1H255v6.6H253.3L253.3,133.4z M255,125.1h3.6
		c0.8,0,1.3-0.1,1.8-0.3c0.4-0.2,0.8-0.5,1-0.9c0.2-0.4,0.3-0.9,0.3-1.3c0-0.7-0.2-1.3-0.6-1.7c-0.4-0.5-1.1-0.7-2-0.7h-4V125.1
		L255,125.1z M272.6,133.4v-13.1h-4.1v-1.8h9.9v1.8h-4.1v13.1H272.6L272.6,133.4z M280.6,133.4v-14.9h9v1.8h-7.4v4.6h6.9v1.7h-6.9
		v5.1h7.7v1.8H280.6L280.6,133.4z M301.6,128.2l1.7,0.5c-0.3,1.6-1,2.8-1.9,3.7c-0.9,0.8-2,1.3-3.3,1.3c-1.3,0-2.4-0.3-3.3-1
		c-0.8-0.7-1.5-1.6-1.9-2.8c-0.4-1.2-0.7-2.6-0.7-4c0-1.5,0.2-2.9,0.7-4.1c0.5-1.2,1.2-2,2.1-2.6c0.9-0.6,1.9-0.9,3-0.9
		c1.2,0,2.3,0.4,3.2,1.1c0.9,0.8,1.4,1.8,1.8,3.2l-1.6,0.5c-0.3-1.1-0.7-1.9-1.3-2.4c-0.5-0.5-1.2-0.7-2.1-0.7c-1,0-1.8,0.3-2.4,0.8
		c-0.6,0.5-1.1,1.3-1.4,2.2c-0.3,0.9-0.4,1.9-0.4,2.9c0,1.3,0.2,2.4,0.5,3.3c0.3,0.9,0.8,1.6,1.4,2.1c0.7,0.5,1.4,0.7,2.1,0.7
		c0.9,0,1.7-0.3,2.3-1C301,130.4,301.4,129.4,301.6,128.2L301.6,128.2z M305.9,133.4v-14.9h1.7v6.1h6.5v-6.1h1.7v14.9H314v-7h-6.5v7
		H305.9L305.9,133.4z M331.2,128.2l1.7,0.5c-0.3,1.6-1,2.8-1.9,3.7c-0.9,0.8-2,1.3-3.3,1.3c-1.3,0-2.4-0.3-3.3-1
		c-0.8-0.7-1.5-1.6-1.9-2.8c-0.4-1.2-0.7-2.6-0.7-4c0-1.5,0.2-2.9,0.7-4.1c0.5-1.2,1.2-2,2.1-2.6c0.9-0.6,1.9-0.9,3-0.9
		c1.3,0,2.3,0.4,3.2,1.1c0.9,0.8,1.4,1.8,1.8,3.2l-1.6,0.5c-0.3-1.1-0.7-1.9-1.3-2.4c-0.5-0.5-1.2-0.7-2.1-0.7c-1,0-1.8,0.3-2.4,0.8
		c-0.6,0.5-1.1,1.3-1.4,2.2c-0.3,0.9-0.4,1.9-0.4,2.9c0,1.3,0.2,2.4,0.5,3.3c0.3,0.9,0.8,1.6,1.4,2.1c0.7,0.5,1.4,0.7,2.1,0.7
		c0.9,0,1.7-0.3,2.3-1C330.5,130.4,331,129.4,331.2,128.2L331.2,128.2z M334.9,126.1c0-2.5,0.6-4.4,1.7-5.8c1.1-1.4,2.5-2.1,4.3-2.1
		c1.2,0,2.2,0.3,3.1,1c0.9,0.7,1.6,1.6,2.1,2.7c0.5,1.2,0.7,2.5,0.7,4c0,1.5-0.3,2.9-0.8,4c-0.5,1.2-1.2,2.1-2.2,2.7
		c-0.9,0.6-1.9,0.9-3,0.9c-1.2,0-2.2-0.3-3.2-1c-0.9-0.7-1.6-1.6-2.1-2.8C335.1,128.7,334.9,127.5,334.9,126.1L334.9,126.1z
		 M336.6,126.2c0,1.8,0.4,3.2,1.2,4.2c0.8,1,1.8,1.5,3,1.5c1.2,0,2.3-0.5,3.1-1.6c0.8-1,1.2-2.5,1.2-4.4c0-1.2-0.2-2.3-0.5-3.2
		c-0.3-0.9-0.8-1.6-1.5-2.1c-0.7-0.5-1.4-0.7-2.2-0.7c-1.2,0-2.2,0.5-3,1.4C337,122.3,336.6,123.9,336.6,126.2L336.6,126.2z
		 M349.7,133.4v-2.1h1.7v2.1H349.7L349.7,133.4z M354.9,133.4v-2.1h1.7v2.1c0,0.8-0.1,1.4-0.3,1.9c-0.2,0.5-0.6,0.8-1.1,1.1
		l-0.4-0.8c0.3-0.2,0.6-0.4,0.7-0.7c0.2-0.3,0.2-0.8,0.3-1.4H354.9L354.9,133.4z M363.4,133.4v-14.9h1.7v13.1h6.1v1.8H363.4
		L363.4,133.4z M375.5,133.4v-13.1h-4.1v-1.8h9.9v1.8h-4.1v13.1H375.5L375.5,133.4z M383.5,133.4v-14.9h4.3c1,0,1.7,0.1,2.2,0.2
		c0.7,0.2,1.3,0.5,1.8,1.1c0.7,0.7,1.2,1.5,1.5,2.5c0.3,1,0.5,2.2,0.5,3.5c0,1.1-0.1,2.1-0.3,3c-0.2,0.9-0.5,1.6-0.9,2.2
		c-0.3,0.6-0.7,1-1.1,1.3c-0.4,0.3-0.9,0.6-1.5,0.7c-0.6,0.2-1.3,0.3-2,0.3H383.5L383.5,133.4z M385.2,131.6h2.7
		c0.8,0,1.5-0.1,1.9-0.3c0.5-0.2,0.8-0.4,1.1-0.8c0.4-0.5,0.7-1.1,0.9-1.9c0.2-0.8,0.3-1.7,0.3-2.9c0-1.6-0.2-2.7-0.6-3.6
		c-0.4-0.8-1-1.4-1.6-1.7c-0.4-0.2-1.2-0.3-2.1-0.3h-2.6V131.6L385.2,131.6z M396.8,133.4v-2.1h1.7v2.1H396.8z"/>
	<g>
		<path class="st1" d="M123.9,57.8l0-0.6c-0.1-24.5-14.6-45-37.8-53.5C61.3-5.3,34,2.3,16.5,23.1l-0.8,0.9h14L8.7,34.2l32.3,1.7
			L3.7,45.6l40.3,1L0.8,55.6L123.9,57.8z"/>
		<path class="st1" d="M0,65.1l42.6,6.7l-39,1l37.3,9.7L8.7,84.2l21.1,10.2h-14l0.8,0.9c12.6,15,30.3,23.1,48.6,23.1
			c7,0,14.2-1.2,21.1-3.7c23.2-8.4,37.7-28.9,37.8-53.5l0-0.6L0,65.1z"/>
	</g>
	<g>
		<path class="st1" d="M285.3,60.6v40.7h18.8V71.9h8.1c10.6,0,19.2-2.3,25.6-6.9c1.9-1.3,3.5-2.8,4.8-4.4H285.3z"/>
		<path class="st1" d="M344.6,58.1c2-3.2,2.9-6.8,2.9-10.8c0-4.2-1.3-8.2-4-11.9c-2.5-3.7-6-6.6-10.2-8.4c-2.9-1.4-6.5-2.4-10.8-2.9
			c-2.8-0.3-7.1-0.4-12.8-0.4h-24.4v34.3H344.6z M304.2,38h7.5c6,0,10.4,0.8,12.9,2.2c2.6,1.5,3.8,4,3.8,7.7c0,3.6-1.3,6-3.9,7.4
			l0,0c-2.5,1.5-7,2.2-13.2,2.2h-7.1V38z"/>
	</g>
	<g>
		<polygon class="st1" points="209.6,58.1 209.6,23.8 190.6,23.8 190.6,53.4 158,53.4 158,23.8 138.9,23.8 138.9,58.1 		"/>
		<polygon class="st1" points="138.9,60.6 138.9,101.3 158,101.3 158,68.3 190.6,68.3 190.6,101.3 209.6,101.3 209.6,60.6 		"/>
	</g>
	<g>
		<rect x="237.9" y="23.8" class="st1" width="19.1" height="34.3"/>
		<rect x="237.9" y="60.6" class="st1" width="19.1" height="40.7"/>
	</g>
</g>
</svg>
